<svg fill="#FFFFFF" xmlns="http://www.w3.org/2000/svg"  viewBox="0 0 50 50" width="50px" height="50px"><path d="M 47.699219 27.699219 L 43 19.601563 C 41.898438 10.300781 37 2 23 2 C 9 2 3 11.5 3 22 C 3 26.199219 4.300781 30.101563 6.5 33.300781 C 8.699219 36.5 10 40.300781 10 44.199219 L 10 49 L 32 49 L 32 44.699219 L 35.101563 44.898438 C 39.398438 45.300781 43 41.898438 43 37.601563 L 43 32.199219 L 47 30.199219 C 47.898438 29.699219 48.199219 28.601563 47.699219 27.699219 Z M 17.300781 25.398438 C 17.632813 25.84375 17.542969 26.46875 17.101563 26.800781 C 16.921875 26.933594 16.710938 27 16.5 27 C 16.195313 27 15.898438 26.863281 15.699219 26.601563 L 12.25 22 L 15.699219 17.398438 C 16.03125 16.960938 16.65625 16.867188 17.097656 17.199219 C 17.539063 17.53125 17.632813 18.15625 17.300781 18.601563 L 14.75 22 Z M 25.976563 15.210938 L 22.976563 29.210938 C 22.878906 29.679688 22.460938 30 22 30 C 21.933594 30 21.859375 29.992188 21.789063 29.976563 C 21.25 29.863281 20.90625 29.332031 21.023438 28.789063 L 24.023438 14.789063 C 24.136719 14.25 24.664063 13.90625 25.210938 14.019531 C 25.75 14.136719 26.09375 14.667969 25.976563 15.210938 Z M 31.300781 26.601563 C 31.105469 26.863281 30.804688 27 30.5 27 C 30.289063 27 30.078125 26.933594 29.898438 26.800781 C 29.457031 26.46875 29.367188 25.84375 29.699219 25.398438 L 32.25 22 L 29.699219 18.601563 C 29.367188 18.15625 29.457031 17.53125 29.898438 17.199219 C 30.339844 16.867188 30.96875 16.957031 31.300781 17.398438 L 34.75 22 Z"/></svg>