<svg xmlns="http://www.w3.org/2000/svg" xmlns:xlink="http://www.w3.org/1999/xlink" viewBox="0,0,256,256" width="50px" height="50px"><g fill="#ffffff" fill-rule="nonzero" stroke="none" stroke-width="1" stroke-linecap="butt" stroke-linejoin="miter" stroke-miterlimit="10" stroke-dasharray="" stroke-dashoffset="0" font-family="none" font-weight="none" font-size="none" text-anchor="none" style="mix-blend-mode: normal"><g transform="scale(5.12,5.12)"><path d="M44.08984,4h-38.17969c-1.10547,0 -1.91016,0.80469 -1.91016,1.91016v38.17969c0,1.10547 0.80469,1.91016 1.91016,1.91016h38.17969c1.10547,0 1.91016,-0.80469 1.91016,-1.91016v-38.17969c0,-1.10547 -0.80469,-1.91016 -1.91016,-1.91016zM18.41797,30h-1.96484v-4.23047h-2.05469v4.23047h-1.96484v-10.10937h1.96484v4.05078h2.05469v-4.05078h1.96484zM25.01953,21.70703h-1.80078v8.29297h-1.96484v-8.29297h-1.78516v-1.81641h5.55078zM32.41016,30l-0.17969,-3.53906c-0.04297,-0.96094 -0.11719,-2.26562 -0.08984,-3.34766h-0.04297c-0.17969,1.08203 -0.44922,2.32813 -0.64453,3.10547l-0.87109,3.61719h-1.39453l-0.83984,-3.55859c-0.19531,-0.80859 -0.46484,-2.06641 -0.61719,-3.16406h-0.04297c-0.03125,1.09766 -0.08984,2.37109 -0.15234,3.375l-0.16406,3.51172h-1.69531l0.73438,-10.10937h2.07031l0.8125,3.66016c0.28516,1.27344 0.53906,2.39844 0.71875,3.53906h0.03125c0.14844,-1.125 0.375,-2.26562 0.64453,-3.53906l0.79297,-3.66016h2.07031l0.61719,10.10938zM40.16797,30h-4.5625v-10.10937h1.96484v8.44531h2.59766z"></path></g></g></svg>