<svg xmlns="http://www.w3.org/2000/svg" xmlns:xlink="http://www.w3.org/1999/xlink" viewBox="0,0,256,256" width="50px" height="50px"><g fill="#fffefe" fill-rule="nonzero" stroke="none" stroke-width="1" stroke-linecap="butt" stroke-linejoin="miter" stroke-miterlimit="10" stroke-dasharray="" stroke-dashoffset="0" font-family="none" font-weight="none" font-size="none" text-anchor="none" style="mix-blend-mode: normal"><g transform="scale(5.12,5.12)"><path d="M44.08984,4h-38.17969c-1.10547,0 -1.91016,0.80469 -1.91016,1.91016v38.17969c0,1.10547 0.80469,1.91016 1.91016,1.91016h38.17969c1.10547,0 1.91016,-0.80469 1.91016,-1.91016v-38.17969c0,-1.10547 -0.80469,-1.91016 -1.91016,-1.91016zM20.57422,28.40625c0.33203,0 0.70703,-0.07812 0.94531,-0.15234l0.19531,1.65234c-0.28516,0.13281 -0.83984,0.23828 -1.53125,0.23828c-2.57812,0 -3.80859,-2.12891 -3.80859,-4.99609c0,-3.80859 2.11328,-5.29297 4.07813,-5.29297c0.69141,0 1.17188,0.13281 1.36719,0.26953l-0.33203,1.64844c-0.22266,-0.10156 -0.47656,-0.19531 -0.91406,-0.19531c-1.10937,0 -2.11328,0.96094 -2.11328,3.46875c0,2.41406 0.91406,3.35938 2.11328,3.35938zM24.21875,30.14453c-0.80859,0 -1.60547,-0.21094 -1.93359,-0.40625l0.28516,-1.69141c0.40625,0.22266 1.09375,0.38672 1.66406,0.38672c0.92969,0 1.37891,-0.48047 1.37891,-1.13672c0,-0.73828 -0.44922,-1.09766 -1.30469,-1.65234c-1.37891,-0.83984 -1.90234,-1.90625 -1.90234,-2.82031c0,-1.62109 1.07813,-2.96875 3.19531,-2.96875c0.66016,0 1.28906,0.17969 1.58984,0.35938l-0.31641,1.69531c-0.28516,-0.17969 -0.71875,-0.34375 -1.28906,-0.34375c-0.83984,0 -1.24609,0.50781 -1.24609,1.04688c0,0.60156 0.30078,0.91797 1.39453,1.57813c1.33594,0.80859 1.83203,1.82813 1.83203,2.89453c-0.00391,1.84375 -1.36719,3.05859 -3.34766,3.05859zM30.12891,30.14453c-0.80859,0 -1.60547,-0.21094 -1.93359,-0.40625l0.28516,-1.69141c0.40625,0.22266 1.09375,0.38672 1.66406,0.38672c0.92969,0 1.37891,-0.48047 1.37891,-1.13672c0,-0.73828 -0.44922,-1.09766 -1.30469,-1.65234c-1.37891,-0.83984 -1.90234,-1.90625 -1.90234,-2.82031c0,-1.62109 1.07813,-2.96875 3.19531,-2.96875c0.66016,0 1.28906,0.17969 1.58984,0.35938l-0.31641,1.69531c-0.28516,-0.17969 -0.71875,-0.34375 -1.28906,-0.34375c-0.83984,0 -1.24609,0.50781 -1.24609,1.04688c0,0.60156 0.30078,0.91797 1.39453,1.57813c1.33594,0.80859 1.83203,1.82813 1.83203,2.89453c0,1.84375 -1.36719,3.05859 -3.34766,3.05859z"></path></g></g></svg>