<svg xmlns="http://www.w3.org/2000/svg" x="0px" y="0px" width="48" height="48" viewBox="0 0 4000 4000">
<path d="M2000 1320A680 680 0 102000 2680 680 680 0 102000 1320zM2000 1047.95c-75.105 0-136-60.895-136-136V776c0-75.105 60.895-136 136-136s136 60.895 136 136v135.95C2136 987.056 2075.105 1047.95 2000 1047.95zM2769.383 1366.634c-34.797 0-69.594-13.265-96.156-39.811-53.125-53.092-53.125-139.204-.066-192.329l96.09-96.14c53.125-53.125 139.254-53.142 192.379-.05s53.125 139.204.066 192.329l-96.09 96.14C2839.043 1353.353 2804.18 1366.634 2769.383 1366.634zM3224 2136h-135.934c-75.105 0-136-60.895-136-136s60.895-136 136-136H3224c75.105 0 136 60.895 136 136S3299.105 2136 3224 2136zM2865.473 3001.506c-34.797 0-69.66-13.281-96.223-39.86l-96.09-96.14c-53.059-53.125-53.059-139.237.066-192.329s139.254-53.108 192.379.05l96.09 96.14c53.059 53.125 53.059 139.237-.066 192.329C2935.066 2988.241 2900.27 3001.506 2865.473 3001.506zM2000 3360c-75.105 0-136-60.895-136-136v-135.95c0-75.105 60.895-136 136-136s136 60.895 136 136V3224C2136 3299.105 2075.105 3360 2000 3360zM1134.527 3001.506c-34.797 0-69.594-13.265-96.156-39.811-53.125-53.092-53.125-139.204-.066-192.329l96.09-96.14c53.125-53.158 139.254-53.142 192.379-.05s53.125 139.204.066 192.329l-96.09 96.14C1204.188 2988.208 1169.324 3001.506 1134.527 3001.506zM911.934 2136H776c-75.105 0-136-60.895-136-136s60.895-136 136-136h135.934c75.105 0 136 60.895 136 136S987.039 2136 911.934 2136zM1230.617 1366.634c-34.797 0-69.66-13.281-96.223-39.86l-96.09-96.14c-53.059-53.125-53.059-139.237.066-192.329s139.254-53.108 192.379.05l96.09 96.14c53.059 53.125 53.059 139.237-.066 192.329C1300.211 1353.369 1265.414 1366.634 1230.617 1366.634z"></path>
</svg>