<svg xmlns="http://www.w3.org/2000/svg"  viewBox="0 0 128 128" width="64px" height="64px"><path fill="#e6e7e8" d="M113.317,71.008h-12.34A46,46,0,1,0,56.388,105.7c1.425,0,2.832-.074,4.225-.2V110a8.3,8.3,0,0,0,8.3,8.3h44.409a8.305,8.305,0,0,0,8.3-8.3V79.3A8.306,8.306,0,0,0,113.317,71.008Z"/><path fill="#6dc9f7" d="M57.613,75.3a7.3,7.3,0,0,1,7.3-7.3H95.669A45,45,0,1,0,52.387,100.7a45.534,45.534,0,0,0,5.226-.311Z"/><path fill="#fff" d="M10.388,55.7a44.992,44.992,0,0,1,43.5-44.962c-.5-.016-1-.038-1.5-.038a45,45,0,0,0,0,90c.5,0,1-.021,1.5-.038A44.992,44.992,0,0,1,10.388,55.7Z"/><rect width="59" height="45.292" x="57.613" y="68.008" fill="#ffd7e5" rx="7.296" ry="7.296"/><path fill="#fa759e" d="M80.513,96.894v.038a2.2,2.2,0,0,1-3.079,2.022L65.017,93.572a3.162,3.162,0,0,1-1.9-2.9v-.034a3.162,3.162,0,0,1,1.9-2.9l12.417-5.382a2.2,2.2,0,0,1,3.079,2.022v.06A2.2,2.2,0,0,1,79.1,86.492L68.389,90.62l10.728,4.223A2.2,2.2,0,0,1,80.513,96.894Z"/><path fill="#fa759e" d="M90.324,77.384a2.046,2.046,0,0,0-2.471,1.509l-5.46,22.56a2.049,2.049,0,0,0,1.508,2.472,2.1,2.1,0,0,0,.484.057,2.041,2.041,0,0,0,1.988-1.566l5.46-22.561A2.05,2.05,0,0,0,90.324,77.384Z"/><path fill="#fa759e" d="M109.213,93.528,96.8,98.935a2.2,2.2,0,0,1-3.083-2.02v-.03a2.205,2.205,0,0,1,1.4-2.052l10.762-4.225L95.12,86.448a2.2,2.2,0,0,1-1.408-2.055h0a2.2,2.2,0,0,1,3.076-2.023L109.2,87.726a3.162,3.162,0,0,1,1.91,2.9h0A3.16,3.16,0,0,1,109.213,93.528Z"/><path fill="#3a2c60" d="M98.513,112.3h-9.25a1,1,0,0,0,0,2h9.25a1,1,0,0,0,0-2Z"/><path fill="#3a2c60" d="M109.317,67.008H96.944A45.982,45.982,0,1,0,52.387,101.7c1.427,0,2.832-.088,4.225-.218V106a8.305,8.305,0,0,0,8.3,8.3H85.013a1,1,0,0,0,0-2H64.908a6.3,6.3,0,0,1-6.3-6.3V75.3a6.3,6.3,0,0,1,6.3-6.3h44.409a6.3,6.3,0,0,1,6.3,6.3V106a6.3,6.3,0,0,1-6.3,6.3h-6.9a1,1,0,0,0,0,2h6.9a8.3,8.3,0,0,0,8.3-8.3V75.3A8.3,8.3,0,0,0,109.317,67.008Zm-57.93,32.64c-7.326-.69-13.706-8.917-17.327-20.974a83.239,83.239,0,0,1,17.327-1.96Zm2-.012V76.715q1.624.019,3.225.1V98.828A11.248,11.248,0,0,1,53.387,99.636Zm-2-24.922a85.066,85.066,0,0,0-17.874,2.038A81.766,81.766,0,0,1,30.9,56.7H51.387ZM8.413,56.7H28.9a82.342,82.342,0,0,0,2.723,20.511A54.678,54.678,0,0,0,17.7,82.722,43.761,43.761,0,0,1,8.413,56.7ZM17.7,28.678A54.642,54.642,0,0,0,31.622,34.19,82.333,82.333,0,0,0,28.9,54.7H8.413A43.761,43.761,0,0,1,17.7,28.678ZM30.9,54.7a81.758,81.758,0,0,1,2.613-20.051,85.133,85.133,0,0,0,17.874,2.037V54.7ZM53.387,11.752c7.326.69,13.706,8.918,17.328,20.974a83.173,83.173,0,0,1-17.328,1.96Zm-2,22.934a83.189,83.189,0,0,1-17.328-1.96c3.622-12.056,10-20.284,17.328-20.974Zm2,2a85.135,85.135,0,0,0,17.875-2.037A81.806,81.806,0,0,1,73.875,54.7H53.387ZM96.362,54.7H75.876a82.279,82.279,0,0,0-2.724-20.51,54.686,54.686,0,0,0,13.923-5.511A43.756,43.756,0,0,1,96.362,54.7Zm.007,2A43.8,43.8,0,0,1,94.9,67.008H75.15A87.537,87.537,0,0,0,75.87,56.7ZM85.792,27.111A53.071,53.071,0,0,1,72.6,32.271c-2.766-9.1-7.091-16.187-12.25-19.835A43.987,43.987,0,0,1,85.792,27.111ZM44.425,12.436c-5.159,3.648-9.483,10.73-12.249,19.835a53.063,53.063,0,0,1-13.194-5.16A43.994,43.994,0,0,1,44.425,12.436ZM18.982,84.29a53.048,53.048,0,0,1,13.19-5.16c2.765,9.1,7.089,16.184,12.246,19.834A44,44,0,0,1,18.982,84.29Zm37.655-9.481q-1.614-.077-3.25-.094V56.7H73.87a87.321,87.321,0,0,1-.721,10.308H64.908A8.3,8.3,0,0,0,56.637,74.809Z"/><path fill="#3a2c60" d="M81.513,84.376a3.2,3.2,0,0,0-4.477-2.939L64.62,86.818a4.188,4.188,0,0,0,0,7.672l12.416,5.381a3.2,3.2,0,0,0,4.477-2.939v-.038a3.186,3.186,0,0,0-2.029-2.981l-8.34-3.283,8.318-3.2A3.241,3.241,0,0,0,81.513,84.376Zm-2.77,1.183L68.029,89.687a1,1,0,0,0-.006,1.863l10.728,4.223a1.2,1.2,0,0,1,.762,1.121v.038a1.2,1.2,0,0,1-1.682,1.1L65.415,92.655a2.188,2.188,0,0,1,0-4l12.417-5.381a1.2,1.2,0,0,1,.482-.1,1.188,1.188,0,0,1,.656.2,1.253,1.253,0,0,1-.227,2.189Z"/><path fill="#3a2c60" d="M92.443,77.787a3.047,3.047,0,0,0-5.563.87l-5.459,22.561a3.047,3.047,0,1,0,5.924,1.433L92.8,80.091A3.021,3.021,0,0,0,92.443,77.787ZM90.86,79.62,85.4,102.181a1.064,1.064,0,0,1-1.263.772,1.049,1.049,0,0,1-.772-1.264l5.46-22.562a1.04,1.04,0,0,1,.474-.648,1.025,1.025,0,0,1,.54-.153,1.045,1.045,0,0,1,.248.03h0a1.048,1.048,0,0,1,.771,1.264Z"/><path fill="#3a2c60" d="M92.712,96.915a3.2,3.2,0,0,0,4.482,2.937l12.418-5.407a4.162,4.162,0,0,0-.013-7.637L97.184,81.451a3.2,3.2,0,1,0-2.425,5.93l8.359,3.234L94.745,93.9A3.2,3.2,0,0,0,92.712,96.915Zm2.763-1.151,10.762-4.225a1,1,0,0,0,0-1.864L95.482,85.516a1.213,1.213,0,0,1-.77-1.123,1.208,1.208,0,0,1,1.2-1.206,1.2,1.2,0,0,1,.48.1l12.415,5.356a2.162,2.162,0,0,1,.007,3.967L96.4,98.018a1.183,1.183,0,0,1-1.14-.1,1.228,1.228,0,0,1,.219-2.157Z"/></svg>