<svg xmlns="http://www.w3.org/2000/svg"  viewBox="0 0 64 64" width="64px" height="64px"><path fill="#c4a2fc" d="M63,28.5v-1a3.00328,3.00328,0,0,0-3-3H26a3.00328,3.00328,0,0,0-3,3v1Z"/><path fill="#c4a2fc" d="M23,30.5v27a3.00328,3.00328,0,0,0,3,3H60a3.00328,3.00328,0,0,0,3-3v-27ZM37.75293,52.85352a1.00007,1.00007,0,1,1-1.50586,1.3164l-7-8.01172A1.00021,1.00021,0,0,1,29.293,44.793l7-7A.99989.99989,0,0,1,37.707,39.207L31.36816,45.5459Zm8.21338-14.09571-4,15a1.00011,1.00011,0,1,1-1.93262-.51562l4-15a1.00011,1.00011,0,1,1,1.93262.51562ZM56.75293,46.1582l-7,8.01172a1.00007,1.00007,0,0,1-1.50586-1.3164l6.38477-7.30762L48.293,39.207A.99989.99989,0,0,1,49.707,37.793l7,7A1.00021,1.00021,0,0,1,56.75293,46.1582Z"/><path fill="#151a6a" d="M44,3.5H4a3.00328,3.00328,0,0,0-3,3v28a3.00328,3.00328,0,0,0,3,3H18.03912l-.90014,6H12a1,1,0,0,0,0,2H36a1,1,0,0,0,0-2H30.861l-.90014-6H44a3.00328,3.00328,0,0,0,3-3V6.5A3.00328,3.00328,0,0,0,44,3.5ZM4,5.5H44a1.0013,1.0013,0,0,1,1,1v3H3v-3A1.0013,1.0013,0,0,1,4,5.5Zm-1,29v-23H23v24H4A1.0013,1.0013,0,0,1,3,34.5Zm25.83887,9H19.16113l.90039-6h7.877ZM44,35.5H25v-24H45v23A1.0013,1.0013,0,0,1,44,35.5Z"/><path fill="#151a6a" d="M7,16.5H9a1,1,0,0,0,0-2H7a1,1,0,0,0,0,2Z"/><path fill="#151a6a" d="M18,18.5H7a1,1,0,0,0,0,2H18a1,1,0,0,0,0-2Z"/><path fill="#151a6a" d="M18,22.5H9a1,1,0,0,0,0,2h9a1,1,0,0,0,0-2Z"/><path fill="#151a6a" d="M18,26.5H9a1,1,0,0,0,0,2h9a1,1,0,0,0,0-2Z"/><path fill="#151a6a" d="M9,30.5H7a1,1,0,0,0,0,2H9a1,1,0,0,0,0-2Z"/><path fill="#151a6a" d="M29,16.5h2a1,1,0,0,0,0-2H29a1,1,0,0,0,0,2Z"/><path fill="#151a6a" d="M40,18.5H29a1,1,0,0,0,0,2H40a1,1,0,0,0,0-2Z"/><path fill="#151a6a" d="M40,22.5H31a1,1,0,0,0,0,2h9a1,1,0,0,0,0-2Z"/><path fill="#151a6a" d="M40,26.5H31a1,1,0,0,0,0,2h9a1,1,0,0,0,0-2Z"/><path fill="#151a6a" d="M31,30.5H29a1,1,0,0,0,0,2h2a1,1,0,0,0,0-2Z"/></svg>